# xmcd
#
# Track frame offsets:
#	150
#	18522
#	34703
#	46367
#	63614
#	78179
#	96516
#	112641
#	132246
#	150904
#	167155
#	186931
#	209294
#	226872
#	242768
#	260032
#	275987
#	293102
#	310060
#	322302
#
# Disc length: 4478 seconds
#
# Revision: 0
# Processed by: cddbd v1.5.2PL0 Copyright (c) Steve Scherf et al.
# Submitted via: EasyCDDAExtractor 9.1.3.1
#
DISCID=1e117c14
DTITLE=Travis Tritt - The Very Best of Travis Tritt
DYEAR=2007
DGENRE=Country
TTITLE0=It's a Great Day to Be Alive
TTITLE1=Take It Easy
TTITLE2=Here's a Quarter (Call Someone Who Cares)
TTITLE3=Anymore
TTITLE4=Country Club
TTITLE5=Help Me Hold On
TTITLE6=Where Corn Don't Grow
TTITLE7=Best of Intentions
TTITLE8=I'm Gonna Be Somebody
TTITLE9=Can I Trust You with My Heart
TTITLE10=Foolish Pride
TTITLE11=Lord Have Mercy on the Working Man
TTITLE12=Nothing Short of Dying
TTITLE13=More Than You'll Ever Know
TTITLE14=Sometimes She Forgets (Single Version)
TTITLE15=This One's Gonna Hurt You (For a Long, Long Time)
TTITLE16=Tell Me I Was Dreaming (Single Version)
TTITLE17=Drift Off to Dream (Edit)(Edit)
TTITLE18=The Whiskey Ain't Workin' (with Marty Stewart)
TTITLE19=T-R-O-U-B-L-E
EXTD=
EXTT0=
EXTT1=
EXTT2=
EXTT3=
EXTT4=
EXTT5=
EXTT6=
EXTT7=
EXTT8=
EXTT9=
EXTT10=
EXTT11=
EXTT12=
EXTT13=
EXTT14=
EXTT15=
EXTT16=
EXTT17=
EXTT18=
EXTT19=
PLAYORDER=
